<svg width="20" height="21" viewBox="0 0 20 21" fill="none" xmlns="http://www.w3.org/2000/svg">
<path fill-rule="evenodd" clip-rule="evenodd" d="M7.3982 5.81547C7.3982 7.37102 6.1158 8.63184 4.53247 8.63184C2.95007 8.63184 1.66675 7.37102 1.66675 5.81547C1.66675 4.26082 2.95007 3 4.53247 3C6.1158 3 7.3982 4.26082 7.3982 5.81547ZM17.0779 4.58194C17.7705 4.58194 18.3334 5.13502 18.3334 5.81547C18.3334 6.49682 17.7705 7.04991 17.0779 7.04991H11.5983C10.9048 7.04991 10.3418 6.49682 10.3418 5.81547C10.3418 5.13502 10.9048 4.58194 11.5983 4.58194H17.0779ZM2.92322 13.7983H8.40282C9.09634 13.7983 9.6593 14.3514 9.6593 15.0327C9.6593 15.7132 9.09634 16.2672 8.40282 16.2672H2.92322C2.22971 16.2672 1.66675 15.7132 1.66675 15.0327C1.66675 14.3514 2.22971 13.7983 2.92322 13.7983ZM15.4677 17.8148C17.051 17.8148 18.3334 16.554 18.3334 14.9993C18.3334 13.4438 17.051 12.183 15.4677 12.183C13.8853 12.183 12.602 13.4438 12.602 14.9993C12.602 16.554 13.8853 17.8148 15.4677 17.8148Z" fill="white"/>
</svg>
