<svg width="1107" height="554" viewBox="0 0 1107 554" fill="none" xmlns="http://www.w3.org/2000/svg">
<path d="M7.18 463.92L155.64 489.87C152.37 510.53 150.67 531.71 150.67 553.29H0C0 522.86 2.46 493.01 7.18 463.92Z" fill="#006634"/>
<path d="M71.08 281.79L201.6 357.14C180.87 394.22 165.84 434.92 157.69 478.05L9.22998 452.1C20.48 391.25 41.68 333.9 71.08 281.79Z" fill="#018D36"/>
<path d="M192.38 133.9L289.43 249.16C257.28 277.08 229.59 310.02 207.61 346.76L77.0901 271.4C107.88 219.5 146.91 173.06 192.38 133.9Z" fill="#3BAA34"/>
<path d="M355.89 36.22L408.13 177.61C368.14 193.07 331.24 214.74 298.61 241.43L201.55 126.16C247.39 88.36 299.42 57.8 355.89 36.22Z" fill="#94C11E"/>
<path d="M367.15 32.06C423.55 11.91 484.17 0.66 547.33 0V150.68C502.53 151.33 459.5 159.3 419.39 173.45L367.15 32.06Z" fill="#DFDC01"/>
<path d="M739.52 32.06L687.28 173.45C647.17 159.3 604.14 151.33 559.33 150.68V0C622.5 0.66 683.12 11.92 739.52 32.06Z" fill="#FDEA11"/>
<path d="M905.12 126.16L808.06 241.44C775.43 214.74 738.53 193.07 698.54 177.61L750.78 36.23C807.25 57.81 859.29 88.37 905.12 126.16Z" fill="#F9B234"/>
<path d="M1029.58 271.4L899.06 346.76C877.07 310.02 849.39 277.08 817.24 249.16L914.29 133.9C959.76 173.06 998.79 219.5 1029.58 271.4Z" fill="#F29200"/>
<path d="M1097.44 452.1L948.98 478.05C940.83 434.92 925.8 394.22 905.07 357.14L1035.59 281.79C1064.99 333.9 1086.19 391.25 1097.44 452.1Z" fill="#EA4E1B"/>
<path d="M1106.67 553.29H956C956 531.71 954.3 510.53 951.03 489.87L1099.49 463.92C1104.21 493.01 1106.67 522.86 1106.67 553.29Z" fill="#C01623"/>
</svg>
