<svg width="430" height="106" viewBox="0 0 430 106" fill="none" xmlns="http://www.w3.org/2000/svg">
<path d="M377.33 0.850098C354.3 0.850098 334.74 15.6901 327.7 36.3301L0.0400391 53.2901L327.7 70.2501C334.74 90.8901 354.3 105.74 377.33 105.74C406.3 105.74 429.78 82.2601 429.78 53.2901C429.78 24.3201 406.3 0.850098 377.33 0.850098ZM377.33 85.5201C366.27 85.5201 356.5 79.9401 350.71 71.4401C347.18 66.2701 345.11 60.0201 345.11 53.2901C345.11 46.5601 347.18 40.3101 350.72 35.1401C356.51 26.6501 366.27 21.0701 377.33 21.0701C395.13 21.0701 409.56 35.5001 409.56 53.2901C409.56 71.0801 395.13 85.5201 377.33 85.5201Z" fill="black"/>
</svg>
