<svg width="32" height="32" viewBox="0 0 32 32" fill="none" xmlns="http://www.w3.org/2000/svg">
<g clip-path="url(#clip0_25_2733)">
<path d="M23.2381 19.8096H25.5238V22.0953H2.66669V19.8096H4.9524L4.9524 11.8096C4.9524 9.38477 5.91566 7.05925 7.63028 5.34463C9.3449 3.63001 11.6704 2.66675 14.0953 2.66675C16.5201 2.66675 18.8456 3.63001 20.5602 5.34463C22.2749 7.05925 23.2381 9.38477 23.2381 11.8096V19.8096ZM20.9524 19.8096V11.8096C20.9524 9.99098 20.23 8.24684 18.944 6.96087C17.658 5.67491 15.9139 4.95246 14.0953 4.95246C12.2766 4.95246 10.5325 5.67491 9.24653 6.96087C7.96056 8.24684 7.23812 9.99098 7.23812 11.8096V19.8096H20.9524ZM10.6667 24.381H17.5238V26.6667H10.6667L10.6667 24.381Z" fill="white"/>
<circle cx="19.8333" cy="4.1665" r="4.5" fill="#F30000"/>
</g>
<defs>
<clipPath id="clip0_25_2733">
<rect width="32" height="32" fill="white"/>
</clipPath>
</defs>
</svg>
