<svg width="44" height="44" viewBox="0 0 44 44" fill="none" xmlns="http://www.w3.org/2000/svg">
<path d="M20.1667 34.8334H7.33335C6.36089 34.8334 5.42826 34.4471 4.74063 33.7595C4.053 33.0718 3.66669 32.1392 3.66669 31.1667V12.8334C3.66669 11.861 4.053 10.9283 4.74063 10.2407C5.42826 9.55306 6.36089 9.16675 7.33335 9.16675H16.5" stroke="white" stroke-width="2" stroke-linecap="round" stroke-linejoin="round"/>
<path d="M23.8333 9.16675H36.6666C37.6391 9.16675 38.5717 9.55306 39.2594 10.2407C39.947 10.9283 40.3333 11.861 40.3333 12.8334V31.1667C40.3333 32.1392 39.947 33.0718 39.2594 33.7595C38.5717 34.4471 37.6391 34.8334 36.6666 34.8334H27.5" stroke="white" stroke-width="2" stroke-linecap="round" stroke-linejoin="round"/>
<path d="M22 27.5C25.0376 27.5 27.5 25.0376 27.5 22C27.5 18.9624 25.0376 16.5 22 16.5C18.9624 16.5 16.5 18.9624 16.5 22C16.5 25.0376 18.9624 27.5 22 27.5Z" stroke="white" stroke-width="2" stroke-linecap="round" stroke-linejoin="round"/>
<path d="M33 40.3333L27.5 34.8333L33 29.3333" stroke="white" stroke-width="2" stroke-linecap="round" stroke-linejoin="round"/>
<path d="M11 3.66675L16.5 9.16675L11 14.6667" stroke="white" stroke-width="2" stroke-linecap="round" stroke-linejoin="round"/>
</svg>
